<svg xmlns="http://www.w3.org/2000/svg" xmlns:xlink="http://www.w3.org/1999/xlink" viewBox="0 0 3327.16 2152.13"><defs><style>.cls-1,.cls-2{fill:#fff;}.cls-2{stroke:#000;stroke-miterlimit:10;stroke-width:67px;}</style></defs><g id="Layer_2" data-name="Layer 2"><g id="P"><path d="M666.5,100a597.29,597.29,0,0,1,335.7,102.52,602.52,602.52,0,0,1,217.64,264.26,599.58,599.58,0,0,1-55.36,569.42,602.52,602.52,0,0,1-264.26,217.64,599.58,599.58,0,0,1-569.42-55.36A602.52,602.52,0,0,1,113.16,934.22,599.58,599.58,0,0,1,168.52,364.8,602.52,602.52,0,0,1,432.78,147.16,596.75,596.75,0,0,1,666.5,100m0-66C298.4,34,0,332.4,0,700.5S298.4,1367,666.5,1367,1333,1068.6,1333,700.5,1034.6,34,666.5,34Z"/><rect class="cls-1" x="34" y="672" width="266" height="1408" rx="27"/><path d="M267,705V2047H67V705H267m6-66H61A60.18,60.18,0,0,0,1,699V2053a60.18,60.18,0,0,0,60,60H273a60.18,60.18,0,0,0,60-60V699a60.18,60.18,0,0,0-60-60Z"/><path class="cls-1" d="M664,305a395,395,0,1,1-154.47,31.11A394.48,394.48,0,0,1,664,305m0-203C332.63,102,64,370.63,64,702s268.63,600,600,600,600-268.63,600-600S995.37,102,664,102Z"/><path d="M664.13,373A328.81,328.81,0,1,1,535.7,398.91,327.86,327.86,0,0,1,664.13,373m0-67c-219.25,0-397,177.74-397,397s177.75,397,397,397,397-177.74,397-397-177.74-397-397-397Z"/><rect class="cls-1" x="97" y="735" width="108" height="1277"/><path class="cls-1" d="M172,768V1979H130V768h42m66-66H64V2045H238V702Z"/></g><g id="ll"><rect class="cls-2" x="2070.5" y="33.5" width="285" height="2079" rx="66"/><rect class="cls-2" x="2355.5" y="33.5" width="285" height="2079" rx="66"/></g><g id="O"><path d="M1548,846.17a597.43,597.43,0,0,1,335.7,102.51A602.6,602.6,0,0,1,2101.34,1213,599.58,599.58,0,0,1,2046,1782.37,602.36,602.36,0,0,1,1781.72,2000a599.66,599.66,0,0,1-569.42-55.35,602.52,602.52,0,0,1-217.64-264.26A599.58,599.58,0,0,1,1050,1111a602.31,602.31,0,0,1,264.26-217.64A596.57,596.57,0,0,1,1548,846.17m0-66c-368.1,0-666.5,298.4-666.5,666.5s298.4,666.5,666.5,666.5,666.5-298.41,666.5-666.5-298.4-666.5-666.5-666.5Z"/><path class="cls-1" d="M1545.5,1051.17A395,395,0,1,1,1391,1082.28a394.48,394.48,0,0,1,154.47-31.11m0-203c-331.37,0-600,268.63-600,600s268.63,600,600,600,600-268.63,600-600-268.63-600-600-600Z"/><path d="M1545.63,1119.17a328.7,328.7,0,1,1-128.43,25.9,327.85,327.85,0,0,1,128.43-25.9m0-67c-219.25,0-397,177.74-397,397s177.75,397,397,397,397-177.75,397-397-177.74-397-397-397Z"/></g><g id="dandelion"><image width="535" height="1125" transform="translate(2541 499) scale(1.47)" xlink:href="../4x/Dandelion_v1.0_trans_4x.png"/></g></g></svg>